<?xml version="1.0" encoding="UTF-8"?>
<svg id="_图层_2" data-name="图层 2" xmlns="http://www.w3.org/2000/svg" viewBox="0 0 28.58 38.85">
  <defs>
    <style>
      .cls-1 {
        fill: #00defc;
      }

      .cls-1, .cls-2, .cls-3, .cls-4, .cls-5, .cls-6, .cls-7 {
        stroke-width: 0px;
      }

      .cls-2 {
        fill: #deed74;
      }

      .cls-3 {
        fill: #e9f4c3;
      }

      .cls-4 {
        fill: #00f2fe;
      }

      .cls-5 {
        fill: #dce041;
      }

      .cls-6 {
        fill: #6ce5a3;
      }

      .cls-7 {
        fill: #84fabe;
      }
    </style>
  </defs>
  <g id="_图层_2-2" data-name="图层 2">
    <g>
      <path class="cls-6" d="M26.83,26.46l-10.03,7.74c-1.55,1.55-4.07,1.55-5.62,0L1.15,26.46c-.32-.32-.56-.69-.74-1.07-.73,1.48-.49,3.32.74,4.55l10.03,7.74c1.55,1.55,4.07,1.55,5.62,0l10.03-7.74c1.23-1.23,1.47-3.07.74-4.55-.19.38-.42.75-.74,1.07Z"/>
      <path class="cls-7" d="M11.18,34.2c1.55,1.55,4.07,1.55,5.62,0l10.03-7.74c.32-.32.56-.69.74-1.07-.19-.38-.42-.75-.74-1.07l-10.03-7.74c-1.55-1.55-4.07-1.55-5.62,0L1.15,24.32c-.32.32-.56.69-.74,1.07.19.38.42.75.74,1.07l10.03,7.74Z"/>
      <path class="cls-3" d="M12.02,31.57c1.09,1.09,2.86,1.09,3.94,0l7.04-5.43c.22-.22.39-.48.52-.75-.13-.27-.3-.53-.52-.75l-7.04-5.43c-1.09-1.09-2.86-1.09-3.94,0l-7.04,5.43c-.22.22-.39.48-.52.75.13.27.3.53.52.75l7.04,5.43Z"/>
      <g>
        <path class="cls-5" d="M17.37,24.75l-2.32,1.79c-.36.36-.94.36-1.3,0l-2.32-1.79c-.07-.07-.13-.16-.17-.25-.17.34-.11.77.17,1.05l2.32,1.79c.36.36.94.36,1.3,0l2.32-1.79c.29-.29.34-.71.17-1.05-.04.09-.1.17-.17.25Z"/>
        <path class="cls-2" d="M13.75,26.54c.36.36.94.36,1.3,0l2.32-1.79c.07-.07.13-.16.17-.25-.04-.09-.1-.17-.17-.25l-2.32-1.79c-.36-.36-.94-.36-1.3,0l-2.32,1.79c-.07.07-.13.16-.17.25.04.09.1.17.17.25l2.32,1.79Z"/>
      </g>
      <g>
        <path class="cls-5" d="M17.37,23.94l-2.32,1.79c-.36.36-.94.36-1.3,0l-2.32-1.79c-.07-.07-.13-.16-.17-.25-.17.34-.11.77.17,1.05l2.32,1.79c.36.36.94.36,1.3,0l2.32-1.79c.29-.29.34-.71.17-1.05-.04.09-.1.17-.17.25Z"/>
        <path class="cls-2" d="M13.75,25.73c.36.36.94.36,1.3,0l2.32-1.79c.07-.07.13-.16.17-.25-.04-.09-.1-.17-.17-.25l-2.32-1.79c-.36-.36-.94-.36-1.3,0l-2.32,1.79c-.07.07-.13.16-.17.25.04.09.1.17.17.25l2.32,1.79Z"/>
      </g>
      <g>
        <path class="cls-5" d="M17.37,23.14l-2.32,1.79c-.36.36-.94.36-1.3,0l-2.32-1.79c-.07-.07-.13-.16-.17-.25-.17.34-.11.77.17,1.05l2.32,1.79c.36.36.94.36,1.3,0l2.32-1.79c.29-.29.34-.71.17-1.05-.04.09-.1.17-.17.25Z"/>
        <path class="cls-2" d="M13.75,24.93c.36.36.94.36,1.3,0l2.32-1.79c.07-.07.13-.16.17-.25-.04-.09-.1-.17-.17-.25l-2.32-1.79c-.36-.36-.94-.36-1.3,0l-2.32,1.79c-.07.07-.13.16-.17.25.04.09.1.17.17.25l2.32,1.79Z"/>
      </g>
      <g>
        <path class="cls-5" d="M17.37,22.33l-2.32,1.79c-.36.36-.94.36-1.3,0l-2.32-1.79c-.07-.07-.13-.16-.17-.25-.17.34-.11.77.17,1.05l2.32,1.79c.36.36.94.36,1.3,0l2.32-1.79c.29-.29.34-.71.17-1.05-.04.09-.1.17-.17.25Z"/>
        <path class="cls-2" d="M13.75,24.12c.36.36.94.36,1.3,0l2.32-1.79c.07-.07.13-.16.17-.25-.04-.09-.1-.17-.17-.25l-2.32-1.79c-.36-.36-.94-.36-1.3,0l-2.32,1.79c-.07.07-.13.16-.17.25.04.09.1.17.17.25l2.32,1.79Z"/>
      </g>
      <g>
        <path class="cls-5" d="M17.37,21.53l-2.32,1.79c-.36.36-.94.36-1.3,0l-2.32-1.79c-.07-.07-.13-.16-.17-.25-.17.34-.11.77.17,1.05l2.32,1.79c.36.36.94.36,1.3,0l2.32-1.79c.29-.29.34-.71.17-1.05-.04.09-.1.17-.17.25Z"/>
        <path class="cls-2" d="M13.75,23.32c.36.36.94.36,1.3,0l2.32-1.79c.07-.07.13-.16.17-.25-.04-.09-.1-.17-.17-.25l-2.32-1.79c-.36-.36-.94-.36-1.3,0l-2.32,1.79c-.07.07-.13.16-.17.25.04.09.1.17.17.25l2.32,1.79Z"/>
      </g>
      <g>
        <path class="cls-5" d="M17.37,20.72l-2.32,1.79c-.36.36-.94.36-1.3,0l-2.32-1.79c-.07-.07-.13-.16-.17-.25-.17.34-.11.77.17,1.05l2.32,1.79c.36.36.94.36,1.3,0l2.32-1.79c.29-.29.34-.71.17-1.05-.04.09-.1.17-.17.25Z"/>
        <path class="cls-2" d="M13.75,22.51c.36.36.94.36,1.3,0l2.32-1.79c.07-.07.13-.16.17-.25-.04-.09-.1-.17-.17-.25l-2.32-1.79c-.36-.36-.94-.36-1.3,0l-2.32,1.79c-.07.07-.13.16-.17.25.04.09.1.17.17.25l2.32,1.79Z"/>
      </g>
      <g>
        <path class="cls-5" d="M17.37,19.91l-2.32,1.79c-.36.36-.94.36-1.3,0l-2.32-1.79c-.07-.07-.13-.16-.17-.25-.17.34-.11.77.17,1.05l2.32,1.79c.36.36.94.36,1.3,0l2.32-1.79c.29-.29.34-.71.17-1.05-.04.09-.1.17-.17.25Z"/>
        <path class="cls-2" d="M13.75,21.71c.36.36.94.36,1.3,0l2.32-1.79c.07-.07.13-.16.17-.25-.04-.09-.1-.17-.17-.25l-2.32-1.79c-.36-.36-.94-.36-1.3,0l-2.32,1.79c-.07.07-.13.16-.17.25.04.09.1.17.17.25l2.32,1.79Z"/>
      </g>
      <g>
        <path class="cls-5" d="M17.37,19.11l-2.32,1.79c-.36.36-.94.36-1.3,0l-2.32-1.79c-.07-.07-.13-.16-.17-.25-.17.34-.11.77.17,1.05l2.32,1.79c.36.36.94.36,1.3,0l2.32-1.79c.29-.29.34-.71.17-1.05-.04.09-.1.17-.17.25Z"/>
        <path class="cls-2" d="M13.75,20.9c.36.36.94.36,1.3,0l2.32-1.79c.07-.07.13-.16.17-.25-.04-.09-.1-.17-.17-.25l-2.32-1.79c-.36-.36-.94-.36-1.3,0l-2.32,1.79c-.07.07-.13.16-.17.25.04.09.1.17.17.25l2.32,1.79Z"/>
      </g>
      <g>
        <path class="cls-5" d="M17.37,18.3l-2.32,1.79c-.36.36-.94.36-1.3,0l-2.32-1.79c-.07-.07-.13-.16-.17-.25-.17.34-.11.77.17,1.05l2.32,1.79c.36.36.94.36,1.3,0l2.32-1.79c.29-.29.34-.71.17-1.05-.04.09-.1.17-.17.25Z"/>
        <path class="cls-2" d="M13.75,20.09c.36.36.94.36,1.3,0l2.32-1.79c.07-.07.13-.16.17-.25-.04-.09-.1-.17-.17-.25l-2.32-1.79c-.36-.36-.94-.36-1.3,0l-2.32,1.79c-.07.07-.13.16-.17.25.04.09.1.17.17.25l2.32,1.79Z"/>
      </g>
      <g>
        <path class="cls-5" d="M17.37,17.5l-2.32,1.79c-.36.36-.94.36-1.3,0l-2.32-1.79c-.07-.07-.13-.16-.17-.25-.17.34-.11.77.17,1.05l2.32,1.79c.36.36.94.36,1.3,0l2.32-1.79c.29-.29.34-.71.17-1.05-.04.09-.1.17-.17.25Z"/>
        <path class="cls-2" d="M13.75,19.29c.36.36.94.36,1.3,0l2.32-1.79c.07-.07.13-.16.17-.25-.04-.09-.1-.17-.17-.25l-2.32-1.79c-.36-.36-.94-.36-1.3,0l-2.32,1.79c-.07.07-.13.16-.17.25.04.09.1.17.17.25l2.32,1.79Z"/>
      </g>
      <g>
        <path class="cls-5" d="M17.37,16.69l-2.32,1.79c-.36.36-.94.36-1.3,0l-2.32-1.79c-.07-.07-.13-.16-.17-.25-.17.34-.11.77.17,1.05l2.32,1.79c.36.36.94.36,1.3,0l2.32-1.79c.29-.29.34-.71.17-1.05-.04.09-.1.17-.17.25Z"/>
        <path class="cls-2" d="M13.75,18.48c.36.36.94.36,1.3,0l2.32-1.79c.07-.07.13-.16.17-.25-.04-.09-.1-.17-.17-.25l-2.32-1.79c-.36-.36-.94-.36-1.3,0l-2.32,1.79c-.07.07-.13.16-.17.25.04.09.1.17.17.25l2.32,1.79Z"/>
      </g>
      <g>
        <path class="cls-5" d="M17.37,15.88l-2.32,1.79c-.36.36-.94.36-1.3,0l-2.32-1.79c-.07-.07-.13-.16-.17-.25-.17.34-.11.77.17,1.05l2.32,1.79c.36.36.94.36,1.3,0l2.32-1.79c.29-.29.34-.71.17-1.05-.04.09-.1.17-.17.25Z"/>
        <path class="cls-2" d="M13.75,17.68c.36.36.94.36,1.3,0l2.32-1.79c.07-.07.13-.16.17-.25-.04-.09-.1-.17-.17-.25l-2.32-1.79c-.36-.36-.94-.36-1.3,0l-2.32,1.79c-.07.07-.13.16-.17.25.04.09.1.17.17.25l2.32,1.79Z"/>
      </g>
      <g>
        <path class="cls-5" d="M17.37,15.08l-2.32,1.79c-.36.36-.94.36-1.3,0l-2.32-1.79c-.07-.07-.13-.16-.17-.25-.17.34-.11.77.17,1.05l2.32,1.79c.36.36.94.36,1.3,0l2.32-1.79c.29-.29.34-.71.17-1.05-.04.09-.1.17-.17.25Z"/>
        <path class="cls-2" d="M13.75,16.87c.36.36.94.36,1.3,0l2.32-1.79c.07-.07.13-.16.17-.25-.04-.09-.1-.17-.17-.25l-2.32-1.79c-.36-.36-.94-.36-1.3,0l-2.32,1.79c-.07.07-.13.16-.17.25.04.09.1.17.17.25l2.32,1.79Z"/>
      </g>
      <g>
        <path class="cls-5" d="M17.37,14.27l-2.32,1.79c-.36.36-.94.36-1.3,0l-2.32-1.79c-.07-.07-.13-.16-.17-.25-.17.34-.11.77.17,1.05l2.32,1.79c.36.36.94.36,1.3,0l2.32-1.79c.29-.29.34-.71.17-1.05-.04.09-.1.17-.17.25Z"/>
        <path class="cls-2" d="M13.75,16.07c.36.36.94.36,1.3,0l2.32-1.79c.07-.07.13-.16.17-.25-.04-.09-.1-.17-.17-.25l-2.32-1.79c-.36-.36-.94-.36-1.3,0l-2.32,1.79c-.07.07-.13.16-.17.25.04.09.1.17.17.25l2.32,1.79Z"/>
      </g>
      <path class="cls-1" d="M27.42,11.05l-10.03,7.74c-1.55,1.55-4.07,1.55-5.62,0L1.74,11.05c-.32-.32-.56-.69-.74-1.07-.73,1.48-.49,3.32.74,4.55l10.03,7.74c1.55,1.55,4.07,1.55,5.62,0l10.03-7.74c1.23-1.23,1.47-3.07.74-4.55-.19.38-.42.75-.74,1.07Z"/>
      <path class="cls-4" d="M11.77,18.79c1.55,1.55,4.07,1.55,5.62,0l10.03-7.74c.32-.32.56-.69.74-1.07-.19-.38-.42-.75-.74-1.07L17.39,1.16c-1.55-1.55-4.07-1.55-5.62,0L1.74,8.91c-.32.32-.56.69-.74,1.07.19.38.42.75.74,1.07l10.03,7.74Z"/>
    </g>
  </g>
</svg>